<mxfile host="Electron" modified="2023-09-11T03:28:23.737Z" agent="Mozilla/5.0 (Macintosh; Intel Mac OS X 10_15_7) AppleWebKit/537.36 (KHTML, like Gecko) draw.io/21.6.8 Chrome/114.0.5735.289 Electron/25.5.0 Safari/537.36" etag="X0pgXY5BCvOemHWETHbn" version="21.6.8" type="device">
  <diagram name="Страница — 1" id="H6sjRZMyaWtSWLwYIf6h">
    <mxGraphModel dx="1114" dy="985" grid="1" gridSize="10" guides="1" tooltips="1" connect="1" arrows="1" fold="1" page="1" pageScale="1" pageWidth="827" pageHeight="1169" math="0" shadow="0">
      <root>
        <mxCell id="0" />
        <mxCell id="1" parent="0" />
        <mxCell id="R-GUum_qWhvNdLuDN9AP-1" value="" style="rounded=1;whiteSpace=wrap;html=1;strokeColor=#000000;fillColor=#000000;" parent="1" vertex="1">
          <mxGeometry x="140" y="90" width="390" height="780" as="geometry" />
        </mxCell>
        <mxCell id="R-GUum_qWhvNdLuDN9AP-2" value="" style="rounded=1;whiteSpace=wrap;html=1;" parent="1" vertex="1">
          <mxGeometry x="150" y="100" width="370" height="760" as="geometry" />
        </mxCell>
        <mxCell id="R-GUum_qWhvNdLuDN9AP-3" value="" style="rounded=1;whiteSpace=wrap;html=1;fillColor=#000000;" parent="1" vertex="1">
          <mxGeometry x="275" y="120" width="120" height="30" as="geometry" />
        </mxCell>
        <mxCell id="R-GUum_qWhvNdLuDN9AP-4" value="" style="shape=or;whiteSpace=wrap;html=1;fillColor=#000000;" parent="1" vertex="1">
          <mxGeometry x="390" y="120" width="10" height="30" as="geometry" />
        </mxCell>
        <mxCell id="R-GUum_qWhvNdLuDN9AP-6" value="" style="shape=or;whiteSpace=wrap;html=1;rotation=-180;fillColor=#000000;" parent="1" vertex="1">
          <mxGeometry x="270" y="120" width="10" height="30" as="geometry" />
        </mxCell>
        <mxCell id="R-GUum_qWhvNdLuDN9AP-7" value="" style="rounded=1;whiteSpace=wrap;html=1;" parent="1" vertex="1">
          <mxGeometry x="205" y="340" width="260" height="40" as="geometry" />
        </mxCell>
        <mxCell id="R-GUum_qWhvNdLuDN9AP-8" value="" style="rounded=1;whiteSpace=wrap;html=1;" parent="1" vertex="1">
          <mxGeometry x="205" y="410" width="260" height="40" as="geometry" />
        </mxCell>
        <mxCell id="R-GUum_qWhvNdLuDN9AP-10" value="" style="rounded=1;whiteSpace=wrap;html=1;" parent="1" vertex="1">
          <mxGeometry x="205" y="550" width="125" height="40" as="geometry" />
        </mxCell>
        <mxCell id="R-GUum_qWhvNdLuDN9AP-11" value="&lt;font color=&quot;#999999&quot; style=&quot;font-size: 17px;&quot;&gt;Ваше имя&lt;/font&gt;" style="text;html=1;strokeColor=none;fillColor=none;align=center;verticalAlign=middle;whiteSpace=wrap;rounded=0;" parent="1" vertex="1">
          <mxGeometry x="217.5" y="345" width="235" height="30" as="geometry" />
        </mxCell>
        <mxCell id="R-GUum_qWhvNdLuDN9AP-12" value="&lt;font color=&quot;#999999&quot;&gt;&lt;span style=&quot;font-size: 17px;&quot;&gt;Номер телефона&lt;/span&gt;&lt;/font&gt;" style="text;html=1;strokeColor=none;fillColor=none;align=center;verticalAlign=middle;whiteSpace=wrap;rounded=0;" parent="1" vertex="1">
          <mxGeometry x="217.5" y="415" width="235" height="30" as="geometry" />
        </mxCell>
        <mxCell id="R-GUum_qWhvNdLuDN9AP-13" value="" style="rounded=1;whiteSpace=wrap;html=1;" parent="1" vertex="1">
          <mxGeometry x="205" y="480" width="260" height="40" as="geometry" />
        </mxCell>
        <mxCell id="R-GUum_qWhvNdLuDN9AP-14" value="&lt;font color=&quot;#999999&quot;&gt;&lt;span style=&quot;font-size: 17px;&quot;&gt;Количество человек&lt;/span&gt;&lt;/font&gt;" style="text;html=1;strokeColor=none;fillColor=none;align=center;verticalAlign=middle;whiteSpace=wrap;rounded=0;" parent="1" vertex="1">
          <mxGeometry x="217.5" y="485" width="235" height="30" as="geometry" />
        </mxCell>
        <mxCell id="R-GUum_qWhvNdLuDN9AP-15" value="" style="rounded=1;whiteSpace=wrap;html=1;" parent="1" vertex="1">
          <mxGeometry x="340" y="550" width="125" height="40" as="geometry" />
        </mxCell>
        <mxCell id="R-GUum_qWhvNdLuDN9AP-16" value="&lt;font color=&quot;#999999&quot;&gt;&lt;span style=&quot;font-size: 17px;&quot;&gt;Дата&lt;/span&gt;&lt;/font&gt;" style="text;html=1;strokeColor=none;fillColor=none;align=center;verticalAlign=middle;whiteSpace=wrap;rounded=0;" parent="1" vertex="1">
          <mxGeometry x="210" y="556" width="110" height="30" as="geometry" />
        </mxCell>
        <mxCell id="R-GUum_qWhvNdLuDN9AP-17" value="&lt;font color=&quot;#999999&quot;&gt;&lt;span style=&quot;font-size: 17px;&quot;&gt;Время&lt;/span&gt;&lt;/font&gt;" style="text;html=1;strokeColor=none;fillColor=none;align=center;verticalAlign=middle;whiteSpace=wrap;rounded=0;" parent="1" vertex="1">
          <mxGeometry x="347.5" y="555" width="110" height="30" as="geometry" />
        </mxCell>
        <mxCell id="R-GUum_qWhvNdLuDN9AP-18" value="" style="rounded=1;whiteSpace=wrap;html=1;" parent="1" vertex="1">
          <mxGeometry x="272.5" y="690" width="125" height="40" as="geometry" />
        </mxCell>
        <mxCell id="R-GUum_qWhvNdLuDN9AP-19" value="&lt;font color=&quot;#999999&quot;&gt;&lt;span style=&quot;font-size: 17px;&quot;&gt;Далее&lt;/span&gt;&lt;/font&gt;" style="text;html=1;strokeColor=none;fillColor=none;align=center;verticalAlign=middle;whiteSpace=wrap;rounded=0;" parent="1" vertex="1">
          <mxGeometry x="280" y="695" width="110" height="30" as="geometry" />
        </mxCell>
        <mxCell id="R-GUum_qWhvNdLuDN9AP-20" value="" style="rounded=1;whiteSpace=wrap;html=1;strokeColor=#000000;fillColor=#000000;" parent="1" vertex="1">
          <mxGeometry x="570" y="90" width="390" height="780" as="geometry" />
        </mxCell>
        <mxCell id="R-GUum_qWhvNdLuDN9AP-21" value="" style="rounded=1;whiteSpace=wrap;html=1;" parent="1" vertex="1">
          <mxGeometry x="580" y="100" width="370" height="760" as="geometry" />
        </mxCell>
        <mxCell id="R-GUum_qWhvNdLuDN9AP-22" value="" style="rounded=1;whiteSpace=wrap;html=1;fillColor=#000000;" parent="1" vertex="1">
          <mxGeometry x="705" y="120" width="120" height="30" as="geometry" />
        </mxCell>
        <mxCell id="R-GUum_qWhvNdLuDN9AP-23" value="" style="shape=or;whiteSpace=wrap;html=1;fillColor=#000000;" parent="1" vertex="1">
          <mxGeometry x="820" y="120" width="10" height="30" as="geometry" />
        </mxCell>
        <mxCell id="R-GUum_qWhvNdLuDN9AP-24" value="" style="shape=or;whiteSpace=wrap;html=1;rotation=-180;fillColor=#000000;" parent="1" vertex="1">
          <mxGeometry x="700" y="120" width="10" height="30" as="geometry" />
        </mxCell>
        <mxCell id="R-GUum_qWhvNdLuDN9AP-35" value="" style="rounded=1;whiteSpace=wrap;html=1;" parent="1" vertex="1">
          <mxGeometry x="702.5" y="690" width="125" height="40" as="geometry" />
        </mxCell>
        <mxCell id="R-GUum_qWhvNdLuDN9AP-36" value="&lt;font color=&quot;#999999&quot;&gt;&lt;span style=&quot;font-size: 17px;&quot;&gt;Далее&lt;/span&gt;&lt;/font&gt;" style="text;html=1;strokeColor=none;fillColor=none;align=center;verticalAlign=middle;whiteSpace=wrap;rounded=0;" parent="1" vertex="1">
          <mxGeometry x="710" y="695" width="110" height="30" as="geometry" />
        </mxCell>
        <mxCell id="R-GUum_qWhvNdLuDN9AP-59" value="" style="rounded=1;whiteSpace=wrap;html=1;strokeColor=#000000;fillColor=#000000;" parent="1" vertex="1">
          <mxGeometry x="1000" y="90" width="390" height="780" as="geometry" />
        </mxCell>
        <mxCell id="R-GUum_qWhvNdLuDN9AP-60" value="" style="rounded=1;whiteSpace=wrap;html=1;" parent="1" vertex="1">
          <mxGeometry x="1010" y="100" width="370" height="760" as="geometry" />
        </mxCell>
        <mxCell id="R-GUum_qWhvNdLuDN9AP-61" value="" style="rounded=1;whiteSpace=wrap;html=1;fillColor=#000000;" parent="1" vertex="1">
          <mxGeometry x="1135" y="120" width="120" height="30" as="geometry" />
        </mxCell>
        <mxCell id="R-GUum_qWhvNdLuDN9AP-62" value="" style="shape=or;whiteSpace=wrap;html=1;fillColor=#000000;" parent="1" vertex="1">
          <mxGeometry x="1250" y="120" width="10" height="30" as="geometry" />
        </mxCell>
        <mxCell id="R-GUum_qWhvNdLuDN9AP-63" value="" style="shape=or;whiteSpace=wrap;html=1;rotation=-180;fillColor=#000000;" parent="1" vertex="1">
          <mxGeometry x="1130" y="120" width="10" height="30" as="geometry" />
        </mxCell>
        <mxCell id="R-GUum_qWhvNdLuDN9AP-64" value="" style="rounded=1;whiteSpace=wrap;html=1;" parent="1" vertex="1">
          <mxGeometry x="1132.5" y="690" width="125" height="40" as="geometry" />
        </mxCell>
        <mxCell id="R-GUum_qWhvNdLuDN9AP-65" value="&lt;font color=&quot;#999999&quot;&gt;&lt;span style=&quot;font-size: 17px;&quot;&gt;Далее&lt;/span&gt;&lt;/font&gt;" style="text;html=1;strokeColor=none;fillColor=none;align=center;verticalAlign=middle;whiteSpace=wrap;rounded=0;" parent="1" vertex="1">
          <mxGeometry x="1140" y="695" width="110" height="30" as="geometry" />
        </mxCell>
        <mxCell id="R-GUum_qWhvNdLuDN9AP-99" value="" style="group" parent="1" vertex="1" connectable="0">
          <mxGeometry x="1030" y="230" width="330" height="430" as="geometry" />
        </mxCell>
        <mxCell id="R-GUum_qWhvNdLuDN9AP-95" value="" style="rounded=0;whiteSpace=wrap;html=1;" parent="R-GUum_qWhvNdLuDN9AP-99" vertex="1">
          <mxGeometry width="330" height="430" as="geometry" />
        </mxCell>
        <mxCell id="R-GUum_qWhvNdLuDN9AP-98" value="" style="group" parent="R-GUum_qWhvNdLuDN9AP-99" vertex="1" connectable="0">
          <mxGeometry x="10" y="9.347826086956522" width="310" height="411.304347826087" as="geometry" />
        </mxCell>
        <mxCell id="R-GUum_qWhvNdLuDN9AP-82" value="" style="verticalLabelPosition=bottom;shadow=0;dashed=0;align=center;html=1;verticalAlign=top;strokeWidth=1;shape=mxgraph.mockup.graphics.simpleIcon;strokeColor=#999999;" parent="R-GUum_qWhvNdLuDN9AP-98" vertex="1">
          <mxGeometry width="61.75298804780876" height="74.47943595769684" as="geometry" />
        </mxCell>
        <mxCell id="R-GUum_qWhvNdLuDN9AP-83" value="" style="verticalLabelPosition=bottom;shadow=0;dashed=0;align=center;html=1;verticalAlign=top;strokeWidth=1;shape=mxgraph.mockup.graphics.simpleIcon;strokeColor=#999999;" parent="R-GUum_qWhvNdLuDN9AP-98" vertex="1">
          <mxGeometry x="61.75298804780876" y="48.911868390129264" width="98.80478087649402" height="95.60047003525266" as="geometry" />
        </mxCell>
        <mxCell id="R-GUum_qWhvNdLuDN9AP-84" value="" style="verticalLabelPosition=bottom;shadow=0;dashed=0;align=center;html=1;verticalAlign=top;strokeWidth=1;shape=mxgraph.mockup.graphics.simpleIcon;strokeColor=#999999;" parent="R-GUum_qWhvNdLuDN9AP-98" vertex="1">
          <mxGeometry y="144.51233842538193" width="160.5577689243028" height="208.98707403055232" as="geometry" />
        </mxCell>
        <mxCell id="R-GUum_qWhvNdLuDN9AP-85" value="" style="verticalLabelPosition=bottom;shadow=0;dashed=0;align=center;html=1;verticalAlign=top;strokeWidth=1;shape=mxgraph.mockup.graphics.simpleIcon;strokeColor=#999999;" parent="R-GUum_qWhvNdLuDN9AP-98" vertex="1">
          <mxGeometry y="74.47943595769684" width="61.75298804780876" height="70.03290246768508" as="geometry" />
        </mxCell>
        <mxCell id="R-GUum_qWhvNdLuDN9AP-87" value="" style="verticalLabelPosition=bottom;shadow=0;dashed=0;align=center;html=1;verticalAlign=top;strokeWidth=1;shape=mxgraph.mockup.graphics.simpleIcon;strokeColor=#999999;" parent="R-GUum_qWhvNdLuDN9AP-98" vertex="1">
          <mxGeometry x="61.75298804780876" width="247.01195219123505" height="55.58166862514689" as="geometry" />
        </mxCell>
        <mxCell id="R-GUum_qWhvNdLuDN9AP-88" value="" style="verticalLabelPosition=bottom;shadow=0;dashed=0;align=center;html=1;verticalAlign=top;strokeWidth=1;shape=mxgraph.mockup.graphics.simpleIcon;strokeColor=#999999;" parent="R-GUum_qWhvNdLuDN9AP-98" vertex="1">
          <mxGeometry x="160.5577689243028" y="200.0940070505288" width="86.45418326693228" height="77.81433607520565" as="geometry" />
        </mxCell>
        <mxCell id="R-GUum_qWhvNdLuDN9AP-89" value="" style="verticalLabelPosition=bottom;shadow=0;dashed=0;align=center;html=1;verticalAlign=top;strokeWidth=1;shape=mxgraph.mockup.graphics.simpleIcon;strokeColor=#999999;" parent="R-GUum_qWhvNdLuDN9AP-98" vertex="1">
          <mxGeometry x="160.5577689243028" y="55.58166862514689" width="148.20717131474103" height="144.51233842538193" as="geometry" />
        </mxCell>
        <mxCell id="R-GUum_qWhvNdLuDN9AP-90" value="" style="verticalLabelPosition=bottom;shadow=0;dashed=0;align=center;html=1;verticalAlign=top;strokeWidth=1;shape=mxgraph.mockup.graphics.simpleIcon;strokeColor=#999999;" parent="R-GUum_qWhvNdLuDN9AP-98" vertex="1">
          <mxGeometry x="247.01195219123505" y="200.0940070505288" width="62.98804780876494" height="33.349001175088134" as="geometry" />
        </mxCell>
        <mxCell id="R-GUum_qWhvNdLuDN9AP-91" value="" style="verticalLabelPosition=bottom;shadow=0;dashed=0;align=center;html=1;verticalAlign=top;strokeWidth=1;shape=mxgraph.mockup.graphics.simpleIcon;strokeColor=#999999;" parent="R-GUum_qWhvNdLuDN9AP-98" vertex="1">
          <mxGeometry x="160.5577689243028" y="277.90834312573446" width="148.20717131474103" height="133.39600470035253" as="geometry" />
        </mxCell>
        <mxCell id="R-GUum_qWhvNdLuDN9AP-92" value="" style="verticalLabelPosition=bottom;shadow=0;dashed=0;align=center;html=1;verticalAlign=top;strokeWidth=1;shape=mxgraph.mockup.graphics.simpleIcon;strokeColor=#999999;" parent="R-GUum_qWhvNdLuDN9AP-98" vertex="1">
          <mxGeometry x="247.01195219123505" y="233.44300822561695" width="37.05179282868526" height="44.46533490011751" as="geometry" />
        </mxCell>
        <mxCell id="R-GUum_qWhvNdLuDN9AP-93" value="" style="verticalLabelPosition=bottom;shadow=0;dashed=0;align=center;html=1;verticalAlign=top;strokeWidth=1;shape=mxgraph.mockup.graphics.simpleIcon;strokeColor=#999999;" parent="R-GUum_qWhvNdLuDN9AP-98" vertex="1">
          <mxGeometry x="284.0637450199203" y="233.44300822561695" width="24.701195219123505" height="44.46533490011751" as="geometry" />
        </mxCell>
        <mxCell id="R-GUum_qWhvNdLuDN9AP-94" value="" style="verticalLabelPosition=bottom;shadow=0;dashed=0;align=center;html=1;verticalAlign=top;strokeWidth=1;shape=mxgraph.mockup.graphics.simpleIcon;strokeColor=#999999;" parent="R-GUum_qWhvNdLuDN9AP-98" vertex="1">
          <mxGeometry y="353.49941245593425" width="160.5577689243028" height="57.80493537015276" as="geometry" />
        </mxCell>
        <mxCell id="R-GUum_qWhvNdLuDN9AP-108" value="" style="group" parent="1" vertex="1" connectable="0">
          <mxGeometry x="590" y="243.82" width="350" height="391.18" as="geometry" />
        </mxCell>
        <mxCell id="R-GUum_qWhvNdLuDN9AP-41" value="&lt;h1 style=&quot;&quot;&gt;Веранда&lt;/h1&gt;&lt;font style=&quot;font-size: 11px;&quot;&gt;Свежий воздух и в спокойная атмосфера летний веранды&amp;nbsp; даст возможность поистине оценить мастерство наших поваров&lt;/font&gt;" style="text;html=1;strokeColor=none;fillColor=none;spacing=5;spacingTop=-20;whiteSpace=wrap;overflow=hidden;rounded=0;" parent="R-GUum_qWhvNdLuDN9AP-108" vertex="1">
          <mxGeometry x="154.41176470588235" width="195.58823529411762" height="123.53052631578949" as="geometry" />
        </mxCell>
        <mxCell id="R-GUum_qWhvNdLuDN9AP-43" value="&lt;h1&gt;Оранжерея&lt;/h1&gt;&lt;font style=&quot;font-size: 11px;&quot;&gt;Живая обстановка переместит вас ближе к дикой природе, окружив причудливой зеленью, пышными кустами и деревьями.&lt;/font&gt;&lt;p&gt;.&lt;/p&gt;" style="text;html=1;strokeColor=none;fillColor=none;spacing=5;spacingTop=-20;whiteSpace=wrap;overflow=hidden;rounded=0;" parent="R-GUum_qWhvNdLuDN9AP-108" vertex="1">
          <mxGeometry x="154.41176470588235" y="133.82473684210527" width="195.58823529411762" height="123.53052631578949" as="geometry" />
        </mxCell>
        <mxCell id="R-GUum_qWhvNdLuDN9AP-45" value="&lt;h1&gt;Каменный&lt;/h1&gt;&lt;p&gt;Круглый камин, тепло настоящего огня и потрескивание поленьев согреет вас в холодный день.&lt;/p&gt;" style="text;html=1;strokeColor=none;fillColor=none;spacing=5;spacingTop=-20;whiteSpace=wrap;overflow=hidden;rounded=0;" parent="R-GUum_qWhvNdLuDN9AP-108" vertex="1">
          <mxGeometry x="154.41176470588235" y="267.64947368421053" width="195.58823529411762" height="123.53052631578949" as="geometry" />
        </mxCell>
        <mxCell id="R-GUum_qWhvNdLuDN9AP-101" value="" style="group" parent="R-GUum_qWhvNdLuDN9AP-108" vertex="1" connectable="0">
          <mxGeometry y="5.147105263157895" width="138.97058823529412" height="113.2363157894737" as="geometry" />
        </mxCell>
        <mxCell id="R-GUum_qWhvNdLuDN9AP-100" value="" style="rounded=0;whiteSpace=wrap;html=1;" parent="R-GUum_qWhvNdLuDN9AP-101" vertex="1">
          <mxGeometry width="138.97058823529412" height="113.2363157894737" as="geometry" />
        </mxCell>
        <mxCell id="R-GUum_qWhvNdLuDN9AP-56" value="" style="verticalLabelPosition=bottom;shadow=0;dashed=0;align=center;html=1;verticalAlign=top;strokeWidth=1;shape=mxgraph.mockup.graphics.simpleIcon;strokeColor=#999999;" parent="R-GUum_qWhvNdLuDN9AP-101" vertex="1">
          <mxGeometry x="7.720588235294117" y="10.29421052631579" width="123.52941176470587" height="92.6478947368421" as="geometry" />
        </mxCell>
        <mxCell id="R-GUum_qWhvNdLuDN9AP-102" value="" style="group" parent="R-GUum_qWhvNdLuDN9AP-108" vertex="1" connectable="0">
          <mxGeometry y="138.97184210526316" width="138.97058823529412" height="113.2363157894737" as="geometry" />
        </mxCell>
        <mxCell id="R-GUum_qWhvNdLuDN9AP-103" value="" style="rounded=0;whiteSpace=wrap;html=1;" parent="R-GUum_qWhvNdLuDN9AP-102" vertex="1">
          <mxGeometry width="138.97058823529412" height="113.2363157894737" as="geometry" />
        </mxCell>
        <mxCell id="R-GUum_qWhvNdLuDN9AP-104" value="" style="verticalLabelPosition=bottom;shadow=0;dashed=0;align=center;html=1;verticalAlign=top;strokeWidth=1;shape=mxgraph.mockup.graphics.simpleIcon;strokeColor=#999999;" parent="R-GUum_qWhvNdLuDN9AP-102" vertex="1">
          <mxGeometry x="7.720588235294117" y="10.29421052631579" width="123.52941176470587" height="92.6478947368421" as="geometry" />
        </mxCell>
        <mxCell id="R-GUum_qWhvNdLuDN9AP-105" value="" style="group" parent="R-GUum_qWhvNdLuDN9AP-108" vertex="1" connectable="0">
          <mxGeometry y="272.79657894736846" width="138.97058823529412" height="113.2363157894737" as="geometry" />
        </mxCell>
        <mxCell id="R-GUum_qWhvNdLuDN9AP-106" value="" style="rounded=0;whiteSpace=wrap;html=1;" parent="R-GUum_qWhvNdLuDN9AP-105" vertex="1">
          <mxGeometry width="138.97058823529412" height="113.2363157894737" as="geometry" />
        </mxCell>
        <mxCell id="R-GUum_qWhvNdLuDN9AP-107" value="" style="verticalLabelPosition=bottom;shadow=0;dashed=0;align=center;html=1;verticalAlign=top;strokeWidth=1;shape=mxgraph.mockup.graphics.simpleIcon;strokeColor=#999999;" parent="R-GUum_qWhvNdLuDN9AP-105" vertex="1">
          <mxGeometry x="7.720588235294117" y="10.29421052631579" width="123.52941176470587" height="92.6478947368421" as="geometry" />
        </mxCell>
        <mxCell id="R-GUum_qWhvNdLuDN9AP-109" value="&lt;h1&gt;Веранда&lt;/h1&gt;" style="text;html=1;strokeColor=none;fillColor=none;spacing=5;spacingTop=-20;whiteSpace=wrap;overflow=hidden;rounded=0;" parent="1" vertex="1">
          <mxGeometry x="1139.23" y="179.99782608695654" width="111.53" height="39.35" as="geometry" />
        </mxCell>
        <mxCell id="CwpH1caAMHPd9aFs4JRU-62" value="&lt;h1&gt;Залы&lt;/h1&gt;" style="text;html=1;strokeColor=none;fillColor=none;spacing=5;spacingTop=-20;whiteSpace=wrap;overflow=hidden;rounded=0;align=center;" parent="1" vertex="1">
          <mxGeometry x="725" y="180" width="80" height="43.82" as="geometry" />
        </mxCell>
        <mxCell id="vsfrkU-NNuDuwXI2EMHt-1" value="" style="rounded=1;whiteSpace=wrap;html=1;strokeColor=#000000;fillColor=#000000;" parent="1" vertex="1">
          <mxGeometry x="1430" y="90" width="390" height="780" as="geometry" />
        </mxCell>
        <mxCell id="vsfrkU-NNuDuwXI2EMHt-2" value="" style="rounded=1;whiteSpace=wrap;html=1;" parent="1" vertex="1">
          <mxGeometry x="1440" y="100" width="370" height="760" as="geometry" />
        </mxCell>
        <mxCell id="vsfrkU-NNuDuwXI2EMHt-3" value="" style="rounded=1;whiteSpace=wrap;html=1;fillColor=#000000;" parent="1" vertex="1">
          <mxGeometry x="1565" y="120" width="120" height="30" as="geometry" />
        </mxCell>
        <mxCell id="vsfrkU-NNuDuwXI2EMHt-4" value="" style="shape=or;whiteSpace=wrap;html=1;fillColor=#000000;" parent="1" vertex="1">
          <mxGeometry x="1680" y="120" width="10" height="30" as="geometry" />
        </mxCell>
        <mxCell id="vsfrkU-NNuDuwXI2EMHt-5" value="" style="shape=or;whiteSpace=wrap;html=1;rotation=-180;fillColor=#000000;" parent="1" vertex="1">
          <mxGeometry x="1560" y="120" width="10" height="30" as="geometry" />
        </mxCell>
        <mxCell id="vsfrkU-NNuDuwXI2EMHt-6" value="" style="rounded=1;whiteSpace=wrap;html=1;" parent="1" vertex="1">
          <mxGeometry x="1562.5" y="690" width="125" height="40" as="geometry" />
        </mxCell>
        <mxCell id="vsfrkU-NNuDuwXI2EMHt-7" value="&lt;font color=&quot;#999999&quot;&gt;&lt;span style=&quot;font-size: 17px;&quot;&gt;Заказать&lt;/span&gt;&lt;/font&gt;" style="text;html=1;strokeColor=none;fillColor=none;align=center;verticalAlign=middle;whiteSpace=wrap;rounded=0;" parent="1" vertex="1">
          <mxGeometry x="1570" y="695" width="110" height="30" as="geometry" />
        </mxCell>
        <mxCell id="vsfrkU-NNuDuwXI2EMHt-23" value="&lt;h1&gt;Веранда&lt;/h1&gt;" style="text;html=1;strokeColor=none;fillColor=none;spacing=5;spacingTop=-20;whiteSpace=wrap;overflow=hidden;rounded=0;" parent="1" vertex="1">
          <mxGeometry x="1569.23" y="179.99782608695654" width="111.53" height="39.35" as="geometry" />
        </mxCell>
        <mxCell id="vsfrkU-NNuDuwXI2EMHt-9" value="" style="rounded=0;whiteSpace=wrap;html=1;" parent="1" vertex="1">
          <mxGeometry x="1460" y="230" width="330" height="430" as="geometry" />
        </mxCell>
        <mxCell id="vsfrkU-NNuDuwXI2EMHt-24" value="" style="rounded=1;whiteSpace=wrap;html=1;" parent="1" vertex="1">
          <mxGeometry x="1475" y="243.82" width="90" height="60" as="geometry" />
        </mxCell>
        <mxCell id="vsfrkU-NNuDuwXI2EMHt-39" value="" style="rounded=1;whiteSpace=wrap;html=1;" parent="1" vertex="1">
          <mxGeometry x="1475" y="585" width="90" height="60" as="geometry" />
        </mxCell>
        <mxCell id="vsfrkU-NNuDuwXI2EMHt-40" value="" style="rounded=1;whiteSpace=wrap;html=1;rotation=90;" parent="1" vertex="1">
          <mxGeometry x="1700" y="260" width="90" height="60" as="geometry" />
        </mxCell>
        <mxCell id="vsfrkU-NNuDuwXI2EMHt-41" value="" style="rounded=1;whiteSpace=wrap;html=1;rotation=90;" parent="1" vertex="1">
          <mxGeometry x="1700" y="570" width="90" height="60" as="geometry" />
        </mxCell>
        <mxCell id="vsfrkU-NNuDuwXI2EMHt-42" value="" style="rounded=1;whiteSpace=wrap;html=1;rotation=-180;" parent="1" vertex="1">
          <mxGeometry x="1570" y="415" width="90" height="60" as="geometry" />
        </mxCell>
        <mxCell id="E_V0FhXU3ix2HppD-oTo-3" value="" style="rounded=1;whiteSpace=wrap;html=1;" vertex="1" parent="1">
          <mxGeometry x="1562.49" y="750" width="125" height="40" as="geometry" />
        </mxCell>
        <mxCell id="E_V0FhXU3ix2HppD-oTo-4" value="&lt;font color=&quot;#999999&quot;&gt;&lt;span style=&quot;font-size: 17px;&quot;&gt;Назад&lt;/span&gt;&lt;/font&gt;" style="text;html=1;strokeColor=none;fillColor=none;align=center;verticalAlign=middle;whiteSpace=wrap;rounded=0;" vertex="1" parent="1">
          <mxGeometry x="1569.99" y="755" width="110" height="30" as="geometry" />
        </mxCell>
        <mxCell id="E_V0FhXU3ix2HppD-oTo-5" value="" style="rounded=1;whiteSpace=wrap;html=1;" vertex="1" parent="1">
          <mxGeometry x="1132.5" y="750" width="125" height="40" as="geometry" />
        </mxCell>
        <mxCell id="E_V0FhXU3ix2HppD-oTo-6" value="&lt;font color=&quot;#999999&quot;&gt;&lt;span style=&quot;font-size: 17px;&quot;&gt;Назад&lt;/span&gt;&lt;/font&gt;" style="text;html=1;strokeColor=none;fillColor=none;align=center;verticalAlign=middle;whiteSpace=wrap;rounded=0;" vertex="1" parent="1">
          <mxGeometry x="1140" y="755" width="110" height="30" as="geometry" />
        </mxCell>
        <mxCell id="E_V0FhXU3ix2HppD-oTo-7" value="" style="rounded=1;whiteSpace=wrap;html=1;" vertex="1" parent="1">
          <mxGeometry x="702.5" y="750" width="125" height="40" as="geometry" />
        </mxCell>
        <mxCell id="E_V0FhXU3ix2HppD-oTo-8" value="&lt;font color=&quot;#999999&quot;&gt;&lt;span style=&quot;font-size: 17px;&quot;&gt;Назад&lt;/span&gt;&lt;/font&gt;" style="text;html=1;strokeColor=none;fillColor=none;align=center;verticalAlign=middle;whiteSpace=wrap;rounded=0;" vertex="1" parent="1">
          <mxGeometry x="710" y="757.5" width="110" height="25" as="geometry" />
        </mxCell>
      </root>
    </mxGraphModel>
  </diagram>
</mxfile>
